<mxfile host="app.diagrams.net" agent="Mozilla/5.0 (Windows NT 10.0; Win64; x64) AppleWebKit/537.36 (KHTML, like Gecko) Chrome/128.0.0.0 Safari/537.36" version="24.7.7">
  <diagram name="Page-1" id="Q1LDJmdQfdO0HIxVTAUq">
    <mxGraphModel dx="1867" dy="1186" grid="1" gridSize="10" guides="1" tooltips="1" connect="1" arrows="1" fold="1" page="1" pageScale="1" pageWidth="850" pageHeight="1100" math="0" shadow="0">
      <root>
        <mxCell id="0" />
        <mxCell id="1" parent="0" />
        <mxCell id="G7dJ7ZVqAW4oc8gyLAdU-1" style="edgeStyle=none;rounded=0;orthogonalLoop=1;jettySize=auto;html=1;exitX=1;exitY=0.5;exitDx=0;exitDy=0;elbow=vertical;endArrow=none;endFill=0;dashed=1;fillColor=#f5f5f5;strokeColor=#666666;dashPattern=1 4;strokeWidth=1;" edge="1" parent="1">
          <mxGeometry relative="1" as="geometry">
            <mxPoint x="-40" y="-340.00333333333305" as="targetPoint" />
            <mxPoint x="-1040" y="-339.67" as="sourcePoint" />
          </mxGeometry>
        </mxCell>
        <mxCell id="G7dJ7ZVqAW4oc8gyLAdU-2" style="edgeStyle=none;rounded=0;orthogonalLoop=1;jettySize=auto;html=1;exitX=1;exitY=0.5;exitDx=0;exitDy=0;elbow=vertical;endArrow=none;endFill=0;dashed=1;fillColor=#f5f5f5;strokeColor=#666666;dashPattern=1 4;strokeWidth=1;" edge="1" parent="1" source="G7dJ7ZVqAW4oc8gyLAdU-40">
          <mxGeometry relative="1" as="geometry">
            <mxPoint x="-40" y="-420.58333333333303" as="targetPoint" />
            <mxPoint x="-1040" y="-420.25" as="sourcePoint" />
          </mxGeometry>
        </mxCell>
        <mxCell id="G7dJ7ZVqAW4oc8gyLAdU-3" style="edgeStyle=none;rounded=0;orthogonalLoop=1;jettySize=auto;html=1;exitX=1;exitY=0.5;exitDx=0;exitDy=0;elbow=vertical;endArrow=none;endFill=0;dashed=1;fillColor=#f5f5f5;strokeColor=#666666;dashPattern=1 4;strokeWidth=1;" edge="1" parent="1">
          <mxGeometry relative="1" as="geometry">
            <mxPoint x="-40" y="-500.00333333333305" as="targetPoint" />
            <mxPoint x="-1040" y="-499.67" as="sourcePoint" />
          </mxGeometry>
        </mxCell>
        <mxCell id="G7dJ7ZVqAW4oc8gyLAdU-4" style="edgeStyle=none;rounded=0;orthogonalLoop=1;jettySize=auto;html=1;exitX=1;exitY=0.5;exitDx=0;exitDy=0;elbow=vertical;endArrow=none;endFill=0;dashed=1;fillColor=#f5f5f5;strokeColor=#666666;dashPattern=1 4;strokeWidth=1;" edge="1" parent="1" source="G7dJ7ZVqAW4oc8gyLAdU-35">
          <mxGeometry relative="1" as="geometry">
            <mxPoint x="-40" y="-580.713333333333" as="targetPoint" />
            <mxPoint x="-1040" y="-580.38" as="sourcePoint" />
          </mxGeometry>
        </mxCell>
        <mxCell id="G7dJ7ZVqAW4oc8gyLAdU-5" style="edgeStyle=none;rounded=0;orthogonalLoop=1;jettySize=auto;html=1;exitX=1;exitY=0.5;exitDx=0;exitDy=0;elbow=vertical;endArrow=none;endFill=0;dashed=1;fillColor=#f5f5f5;strokeColor=#666666;dashPattern=1 4;strokeWidth=1;" edge="1" parent="1">
          <mxGeometry relative="1" as="geometry">
            <mxPoint x="-40" y="-660.253333333333" as="targetPoint" />
            <mxPoint x="-1040" y="-659.92" as="sourcePoint" />
          </mxGeometry>
        </mxCell>
        <mxCell id="G7dJ7ZVqAW4oc8gyLAdU-6" style="edgeStyle=none;rounded=0;orthogonalLoop=1;jettySize=auto;html=1;exitX=1;exitY=0.5;exitDx=0;exitDy=0;elbow=vertical;endArrow=none;endFill=0;dashed=1;fillColor=#f5f5f5;strokeColor=#666666;dashPattern=1 4;strokeWidth=1;" edge="1" parent="1">
          <mxGeometry relative="1" as="geometry">
            <mxPoint x="-40" y="-740.253333333333" as="targetPoint" />
            <mxPoint x="-1040" y="-739.92" as="sourcePoint" />
          </mxGeometry>
        </mxCell>
        <mxCell id="G7dJ7ZVqAW4oc8gyLAdU-7" style="edgeStyle=none;rounded=0;orthogonalLoop=1;jettySize=auto;html=1;exitX=1;exitY=0.5;exitDx=0;exitDy=0;elbow=vertical;endArrow=none;endFill=0;dashed=1;fillColor=#f5f5f5;strokeColor=#666666;dashPattern=1 4;strokeWidth=1;" edge="1" parent="1">
          <mxGeometry relative="1" as="geometry">
            <mxPoint x="-40" y="-820.253333333333" as="targetPoint" />
            <mxPoint x="-1040" y="-819.92" as="sourcePoint" />
          </mxGeometry>
        </mxCell>
        <mxCell id="G7dJ7ZVqAW4oc8gyLAdU-8" style="edgeStyle=orthogonalEdgeStyle;curved=1;rounded=0;orthogonalLoop=1;jettySize=auto;html=1;exitX=1;exitY=0.5;exitDx=0;exitDy=0;endArrow=none;endFill=0;dashed=1;dashPattern=1 4;" edge="1" parent="1">
          <mxGeometry relative="1" as="geometry">
            <mxPoint x="-320" y="-419.75" as="sourcePoint" />
            <mxPoint x="-320" y="-419.75" as="targetPoint" />
          </mxGeometry>
        </mxCell>
        <mxCell id="G7dJ7ZVqAW4oc8gyLAdU-9" style="edgeStyle=orthogonalEdgeStyle;curved=1;rounded=0;orthogonalLoop=1;jettySize=auto;html=1;exitX=1;exitY=0.5;exitDx=0;exitDy=0;endArrow=none;endFill=0;dashed=1;dashPattern=1 4;" edge="1" parent="1">
          <mxGeometry relative="1" as="geometry">
            <mxPoint x="-320" y="-339.75" as="sourcePoint" />
            <mxPoint x="-320" y="-339.75" as="targetPoint" />
          </mxGeometry>
        </mxCell>
        <mxCell id="G7dJ7ZVqAW4oc8gyLAdU-10" style="edgeStyle=orthogonalEdgeStyle;curved=1;rounded=0;orthogonalLoop=1;jettySize=auto;html=1;exitX=0;exitY=0.5;exitDx=0;exitDy=0;entryX=0;entryY=0;entryDx=0;entryDy=0;endArrow=none;endFill=0;fillColor=#dae8fc;strokeColor=#6c8ebf;strokeWidth=3;" edge="1" parent="1">
          <mxGeometry relative="1" as="geometry">
            <mxPoint x="-400" y="-780" as="targetPoint" />
            <mxPoint x="-360" y="-820" as="sourcePoint" />
          </mxGeometry>
        </mxCell>
        <mxCell id="G7dJ7ZVqAW4oc8gyLAdU-11" value="" style="ellipse;whiteSpace=wrap;html=1;aspect=fixed;fillColor=#dae8fc;strokeColor=#6c8ebf;strokeWidth=2;" vertex="1" parent="1">
          <mxGeometry x="-480" y="-760" width="40" height="40" as="geometry" />
        </mxCell>
        <mxCell id="G7dJ7ZVqAW4oc8gyLAdU-12" style="edgeStyle=orthogonalEdgeStyle;curved=1;rounded=0;orthogonalLoop=1;jettySize=auto;html=1;exitX=1;exitY=0.5;exitDx=0;exitDy=0;entryX=1;entryY=1;entryDx=0;entryDy=0;endArrow=none;endFill=0;fillColor=#dae8fc;strokeColor=#6c8ebf;strokeWidth=3;" edge="1" parent="1">
          <mxGeometry relative="1" as="geometry">
            <mxPoint x="-440" y="-740" as="sourcePoint" />
            <mxPoint x="-400" y="-780" as="targetPoint" />
          </mxGeometry>
        </mxCell>
        <mxCell id="G7dJ7ZVqAW4oc8gyLAdU-13" value="" style="ellipse;whiteSpace=wrap;html=1;aspect=fixed;fillColor=#d5e8d4;strokeColor=#82b366;strokeWidth=2;" vertex="1" parent="1">
          <mxGeometry x="-360" y="-840" width="40" height="40" as="geometry" />
        </mxCell>
        <mxCell id="G7dJ7ZVqAW4oc8gyLAdU-14" value="" style="ellipse;whiteSpace=wrap;html=1;aspect=fixed;fillColor=#e1d5e7;strokeColor=#9673a6;strokeWidth=2;" vertex="1" parent="1">
          <mxGeometry x="-240" y="-600" width="40" height="40" as="geometry" />
        </mxCell>
        <mxCell id="G7dJ7ZVqAW4oc8gyLAdU-15" style="edgeStyle=orthogonalEdgeStyle;rounded=0;orthogonalLoop=1;jettySize=auto;html=1;exitX=1;exitY=0.5;exitDx=0;exitDy=0;entryX=0.5;entryY=0;entryDx=0;entryDy=0;curved=1;endArrow=none;endFill=0;strokeWidth=3;fillColor=#e1d5e7;strokeColor=#9673a6;" edge="1" parent="1">
          <mxGeometry relative="1" as="geometry">
            <mxPoint x="-280" y="-780.25" as="targetPoint" />
            <mxPoint x="-320" y="-820.25" as="sourcePoint" />
          </mxGeometry>
        </mxCell>
        <mxCell id="G7dJ7ZVqAW4oc8gyLAdU-16" style="edgeStyle=orthogonalEdgeStyle;curved=1;rounded=0;orthogonalLoop=1;jettySize=auto;html=1;exitX=0;exitY=0.5;exitDx=0;exitDy=0;entryX=0.5;entryY=1;entryDx=0;entryDy=0;endArrow=none;endFill=0;strokeWidth=3;fillColor=#e1d5e7;strokeColor=#9673a6;" edge="1" parent="1">
          <mxGeometry relative="1" as="geometry">
            <mxPoint x="-280" y="-620" as="targetPoint" />
            <mxPoint x="-240" y="-580" as="sourcePoint" />
          </mxGeometry>
        </mxCell>
        <mxCell id="G7dJ7ZVqAW4oc8gyLAdU-17" style="edgeStyle=orthogonalEdgeStyle;curved=1;rounded=0;orthogonalLoop=1;jettySize=auto;html=1;endArrow=none;endFill=0;strokeWidth=3;fillColor=#e1d5e7;strokeColor=#9673a6;" edge="1" parent="1">
          <mxGeometry relative="1" as="geometry">
            <mxPoint x="-280" y="-620" as="targetPoint" />
            <mxPoint x="-280" y="-780" as="sourcePoint" />
          </mxGeometry>
        </mxCell>
        <mxCell id="G7dJ7ZVqAW4oc8gyLAdU-18" value="" style="ellipse;whiteSpace=wrap;html=1;aspect=fixed;fillColor=#fff2cc;strokeColor=#d6b656;strokeWidth=2;" vertex="1" parent="1">
          <mxGeometry x="-120" y="-359.75" width="40" height="40" as="geometry" />
        </mxCell>
        <mxCell id="G7dJ7ZVqAW4oc8gyLAdU-19" style="edgeStyle=orthogonalEdgeStyle;rounded=0;orthogonalLoop=1;jettySize=auto;html=1;exitX=1;exitY=0.5;exitDx=0;exitDy=0;entryX=0.5;entryY=0;entryDx=0;entryDy=0;curved=1;endArrow=none;endFill=0;strokeWidth=3;fillColor=#fff2cc;strokeColor=#d6b656;" edge="1" parent="1">
          <mxGeometry relative="1" as="geometry">
            <mxPoint x="-160" y="-539.9999999999998" as="targetPoint" />
            <mxPoint x="-200" y="-580" as="sourcePoint" />
          </mxGeometry>
        </mxCell>
        <mxCell id="G7dJ7ZVqAW4oc8gyLAdU-20" style="edgeStyle=orthogonalEdgeStyle;curved=1;rounded=0;orthogonalLoop=1;jettySize=auto;html=1;exitX=0;exitY=0.5;exitDx=0;exitDy=0;entryX=0.5;entryY=1;entryDx=0;entryDy=0;endArrow=none;endFill=0;strokeWidth=3;fillColor=#fff2cc;strokeColor=#d6b656;" edge="1" parent="1">
          <mxGeometry relative="1" as="geometry">
            <mxPoint x="-160" y="-379.99" as="targetPoint" />
            <mxPoint x="-120" y="-339.99" as="sourcePoint" />
          </mxGeometry>
        </mxCell>
        <mxCell id="G7dJ7ZVqAW4oc8gyLAdU-21" style="edgeStyle=orthogonalEdgeStyle;curved=1;rounded=0;orthogonalLoop=1;jettySize=auto;html=1;endArrow=none;endFill=0;strokeWidth=3;fillColor=#fff2cc;strokeColor=#d6b656;" edge="1" parent="1">
          <mxGeometry relative="1" as="geometry">
            <mxPoint x="-160" y="-379.99" as="targetPoint" />
            <mxPoint x="-160" y="-459.99" as="sourcePoint" />
          </mxGeometry>
        </mxCell>
        <mxCell id="G7dJ7ZVqAW4oc8gyLAdU-22" style="edgeStyle=orthogonalEdgeStyle;curved=1;rounded=0;orthogonalLoop=1;jettySize=auto;html=1;exitX=0;exitY=0.5;exitDx=0;exitDy=0;entryX=0.5;entryY=1;entryDx=0;entryDy=0;endArrow=none;endFill=0;strokeWidth=3;fillColor=#fff2cc;strokeColor=#d6b656;" edge="1" parent="1">
          <mxGeometry relative="1" as="geometry">
            <mxPoint x="-160" y="-459.75" as="targetPoint" />
            <mxPoint x="-120" y="-419.75" as="sourcePoint" />
          </mxGeometry>
        </mxCell>
        <mxCell id="G7dJ7ZVqAW4oc8gyLAdU-23" value="" style="ellipse;whiteSpace=wrap;html=1;aspect=fixed;fillColor=#fff2cc;strokeColor=#d6b656;strokeWidth=2;" vertex="1" parent="1">
          <mxGeometry x="-120" y="-439.75" width="40" height="40" as="geometry" />
        </mxCell>
        <mxCell id="G7dJ7ZVqAW4oc8gyLAdU-24" style="edgeStyle=orthogonalEdgeStyle;curved=1;rounded=0;orthogonalLoop=1;jettySize=auto;html=1;exitX=0;exitY=0.5;exitDx=0;exitDy=0;entryX=0;entryY=0;entryDx=0;entryDy=0;endArrow=none;endFill=0;fillColor=#ffe6cc;strokeColor=#d79b00;strokeWidth=3;" edge="1" parent="1">
          <mxGeometry relative="1" as="geometry">
            <mxPoint x="-520" y="-700" as="targetPoint" />
            <mxPoint x="-480" y="-740" as="sourcePoint" />
          </mxGeometry>
        </mxCell>
        <mxCell id="G7dJ7ZVqAW4oc8gyLAdU-25" style="edgeStyle=orthogonalEdgeStyle;curved=1;rounded=0;orthogonalLoop=1;jettySize=auto;html=1;exitX=1;exitY=0.5;exitDx=0;exitDy=0;entryX=1;entryY=1;entryDx=0;entryDy=0;endArrow=none;endFill=0;fillColor=#ffe6cc;strokeColor=#d79b00;strokeWidth=3;" edge="1" parent="1">
          <mxGeometry relative="1" as="geometry">
            <mxPoint x="-560" y="-660" as="sourcePoint" />
            <mxPoint x="-520" y="-700" as="targetPoint" />
          </mxGeometry>
        </mxCell>
        <mxCell id="G7dJ7ZVqAW4oc8gyLAdU-26" value="" style="ellipse;whiteSpace=wrap;html=1;aspect=fixed;fillColor=#ffe6cc;strokeColor=#d79b00;strokeWidth=2;" vertex="1" parent="1">
          <mxGeometry x="-600" y="-680" width="40" height="40" as="geometry" />
        </mxCell>
        <mxCell id="G7dJ7ZVqAW4oc8gyLAdU-27" value="Feature" style="rounded=1;whiteSpace=wrap;html=1;fillColor=#fff2cc;strokeColor=#d6b656;fontSize=14;" vertex="1" parent="1">
          <mxGeometry x="-1160" y="-439.51" width="120" height="40" as="geometry" />
        </mxCell>
        <mxCell id="G7dJ7ZVqAW4oc8gyLAdU-28" value="Feature" style="rounded=1;whiteSpace=wrap;html=1;fillColor=#fff2cc;strokeColor=#d6b656;fontSize=14;" vertex="1" parent="1">
          <mxGeometry x="-1160" y="-359.51" width="120" height="40" as="geometry" />
        </mxCell>
        <mxCell id="G7dJ7ZVqAW4oc8gyLAdU-29" value="Staging" style="rounded=1;whiteSpace=wrap;html=1;fillColor=#dae8fc;strokeColor=#6c8ebf;fontSize=14;" vertex="1" parent="1">
          <mxGeometry x="-1160" y="-760" width="120" height="40" as="geometry" />
        </mxCell>
        <mxCell id="G7dJ7ZVqAW4oc8gyLAdU-30" value="Development" style="rounded=1;whiteSpace=wrap;html=1;fillColor=#e1d5e7;strokeColor=#9673a6;fontSize=14;" vertex="1" parent="1">
          <mxGeometry x="-1160" y="-600" width="120" height="40" as="geometry" />
        </mxCell>
        <mxCell id="G7dJ7ZVqAW4oc8gyLAdU-31" value="Testing" style="rounded=1;whiteSpace=wrap;html=1;fillColor=#ffe6cc;strokeColor=#d79b00;fontSize=14;" vertex="1" parent="1">
          <mxGeometry x="-1160" y="-680" width="120" height="40" as="geometry" />
        </mxCell>
        <mxCell id="G7dJ7ZVqAW4oc8gyLAdU-32" value="Production" style="rounded=1;whiteSpace=wrap;html=1;fillColor=#d5e8d4;strokeColor=#82b366;fontSize=14;" vertex="1" parent="1">
          <mxGeometry x="-1160" y="-840" width="120" height="40" as="geometry" />
        </mxCell>
        <mxCell id="G7dJ7ZVqAW4oc8gyLAdU-33" value="Feature" style="rounded=1;whiteSpace=wrap;html=1;fillColor=#fff2cc;strokeColor=#d6b656;fontSize=14;" vertex="1" parent="1">
          <mxGeometry x="-1160" y="-519.75" width="120" height="40" as="geometry" />
        </mxCell>
        <mxCell id="G7dJ7ZVqAW4oc8gyLAdU-34" value="" style="edgeStyle=none;rounded=0;orthogonalLoop=1;jettySize=auto;html=1;exitX=1;exitY=0.5;exitDx=0;exitDy=0;elbow=vertical;endArrow=none;endFill=0;dashed=1;fillColor=#f5f5f5;strokeColor=#666666;dashPattern=1 4;strokeWidth=1;" edge="1" parent="1">
          <mxGeometry relative="1" as="geometry">
            <mxPoint x="-960" y="-579.87" as="targetPoint" />
            <mxPoint x="-1040" y="-580.25" as="sourcePoint" />
          </mxGeometry>
        </mxCell>
        <mxCell id="G7dJ7ZVqAW4oc8gyLAdU-35" value="" style="ellipse;whiteSpace=wrap;html=1;aspect=fixed;fillColor=#e1d5e7;strokeColor=#9673a6;strokeWidth=2;" vertex="1" parent="1">
          <mxGeometry x="-960" y="-600" width="40" height="40" as="geometry" />
        </mxCell>
        <mxCell id="G7dJ7ZVqAW4oc8gyLAdU-36" style="edgeStyle=orthogonalEdgeStyle;curved=1;rounded=0;orthogonalLoop=1;jettySize=auto;html=1;endArrow=none;endFill=0;strokeWidth=3;fillColor=#fff2cc;strokeColor=#d6b656;" edge="1" parent="1">
          <mxGeometry relative="1" as="geometry">
            <mxPoint x="-160" y="-459.75" as="targetPoint" />
            <mxPoint x="-160" y="-539.75" as="sourcePoint" />
          </mxGeometry>
        </mxCell>
        <mxCell id="G7dJ7ZVqAW4oc8gyLAdU-37" style="edgeStyle=orthogonalEdgeStyle;curved=1;rounded=0;orthogonalLoop=1;jettySize=auto;html=1;exitX=0;exitY=0.5;exitDx=0;exitDy=0;entryX=0.5;entryY=1;entryDx=0;entryDy=0;endArrow=none;endFill=0;strokeWidth=3;fillColor=#fff2cc;strokeColor=#d6b656;" edge="1" parent="1">
          <mxGeometry relative="1" as="geometry">
            <mxPoint x="-160" y="-539.51" as="targetPoint" />
            <mxPoint x="-120" y="-499.51" as="sourcePoint" />
          </mxGeometry>
        </mxCell>
        <mxCell id="G7dJ7ZVqAW4oc8gyLAdU-38" value="" style="ellipse;whiteSpace=wrap;html=1;aspect=fixed;fillColor=#fff2cc;strokeColor=#d6b656;strokeWidth=2;" vertex="1" parent="1">
          <mxGeometry x="-120" y="-519.51" width="40" height="40" as="geometry" />
        </mxCell>
        <mxCell id="G7dJ7ZVqAW4oc8gyLAdU-39" value="" style="edgeStyle=none;rounded=0;orthogonalLoop=1;jettySize=auto;html=1;exitX=1;exitY=0.5;exitDx=0;exitDy=0;elbow=vertical;endArrow=none;endFill=0;dashed=1;fillColor=#f5f5f5;strokeColor=#666666;dashPattern=1 4;strokeWidth=1;" edge="1" parent="1">
          <mxGeometry relative="1" as="geometry">
            <mxPoint x="-719.9999783737501" y="-419.39941173290265" as="targetPoint" />
            <mxPoint x="-1040" y="-420.11" as="sourcePoint" />
          </mxGeometry>
        </mxCell>
        <mxCell id="G7dJ7ZVqAW4oc8gyLAdU-40" value="" style="ellipse;whiteSpace=wrap;html=1;aspect=fixed;fillColor=#fff2cc;strokeColor=#d6b656;strokeWidth=2;" vertex="1" parent="1">
          <mxGeometry x="-720" y="-439.51" width="40" height="40" as="geometry" />
        </mxCell>
        <mxCell id="G7dJ7ZVqAW4oc8gyLAdU-41" style="edgeStyle=orthogonalEdgeStyle;rounded=0;orthogonalLoop=1;jettySize=auto;html=1;exitX=1;exitY=0.5;exitDx=0;exitDy=0;entryX=0;entryY=0.5;entryDx=0;entryDy=0;fillColor=#fff2cc;strokeColor=#d6b656;strokeWidth=3;endArrow=none;endFill=0;" edge="1" parent="1" source="G7dJ7ZVqAW4oc8gyLAdU-42" target="G7dJ7ZVqAW4oc8gyLAdU-40">
          <mxGeometry relative="1" as="geometry" />
        </mxCell>
        <mxCell id="G7dJ7ZVqAW4oc8gyLAdU-42" value="" style="ellipse;whiteSpace=wrap;html=1;aspect=fixed;fillColor=#fff2cc;strokeColor=#d6b656;strokeWidth=2;" vertex="1" parent="1">
          <mxGeometry x="-840" y="-439.75" width="40" height="40" as="geometry" />
        </mxCell>
        <mxCell id="G7dJ7ZVqAW4oc8gyLAdU-43" style="edgeStyle=orthogonalEdgeStyle;rounded=0;orthogonalLoop=1;jettySize=auto;html=1;exitX=1;exitY=0.5;exitDx=0;exitDy=0;entryX=0.5;entryY=0;entryDx=0;entryDy=0;curved=1;endArrow=none;endFill=0;strokeWidth=3;fillColor=#fff2cc;strokeColor=#d6b656;" edge="1" parent="1">
          <mxGeometry relative="1" as="geometry">
            <mxPoint x="-880" y="-539.9999999999998" as="targetPoint" />
            <mxPoint x="-920" y="-580" as="sourcePoint" />
          </mxGeometry>
        </mxCell>
        <mxCell id="G7dJ7ZVqAW4oc8gyLAdU-44" style="edgeStyle=orthogonalEdgeStyle;curved=1;rounded=0;orthogonalLoop=1;jettySize=auto;html=1;exitX=0;exitY=0.5;exitDx=0;exitDy=0;entryX=0.5;entryY=1;entryDx=0;entryDy=0;endArrow=none;endFill=0;strokeWidth=3;fillColor=#fff2cc;strokeColor=#d6b656;" edge="1" parent="1">
          <mxGeometry relative="1" as="geometry">
            <mxPoint x="-880" y="-460" as="targetPoint" />
            <mxPoint x="-840" y="-420" as="sourcePoint" />
          </mxGeometry>
        </mxCell>
        <mxCell id="G7dJ7ZVqAW4oc8gyLAdU-45" style="edgeStyle=orthogonalEdgeStyle;curved=1;rounded=0;orthogonalLoop=1;jettySize=auto;html=1;endArrow=none;endFill=0;strokeWidth=3;fillColor=#fff2cc;strokeColor=#d6b656;" edge="1" parent="1">
          <mxGeometry relative="1" as="geometry">
            <mxPoint x="-880" y="-459.75" as="targetPoint" />
            <mxPoint x="-880" y="-539.75" as="sourcePoint" />
          </mxGeometry>
        </mxCell>
        <mxCell id="G7dJ7ZVqAW4oc8gyLAdU-46" style="edgeStyle=orthogonalEdgeStyle;curved=1;rounded=0;orthogonalLoop=1;jettySize=auto;html=1;exitX=0;exitY=0.5;exitDx=0;exitDy=0;entryX=0.5;entryY=1;entryDx=0;entryDy=0;endArrow=none;endFill=0;strokeWidth=3;fillColor=#fff2cc;strokeColor=#d6b656;" edge="1" parent="1">
          <mxGeometry relative="1" as="geometry">
            <mxPoint x="-640" y="-460" as="targetPoint" />
            <mxPoint x="-680" y="-420" as="sourcePoint" />
          </mxGeometry>
        </mxCell>
        <mxCell id="G7dJ7ZVqAW4oc8gyLAdU-47" style="edgeStyle=orthogonalEdgeStyle;rounded=0;orthogonalLoop=1;jettySize=auto;html=1;exitX=1;exitY=0.5;exitDx=0;exitDy=0;entryX=0.5;entryY=0;entryDx=0;entryDy=0;curved=1;endArrow=none;endFill=0;strokeWidth=3;fillColor=#fff2cc;strokeColor=#d6b656;" edge="1" parent="1">
          <mxGeometry relative="1" as="geometry">
            <mxPoint x="-640" y="-619.9999999999998" as="targetPoint" />
            <mxPoint x="-600" y="-660" as="sourcePoint" />
          </mxGeometry>
        </mxCell>
        <mxCell id="G7dJ7ZVqAW4oc8gyLAdU-48" style="edgeStyle=orthogonalEdgeStyle;curved=1;rounded=0;orthogonalLoop=1;jettySize=auto;html=1;endArrow=none;endFill=0;strokeWidth=3;fillColor=#fff2cc;strokeColor=#d6b656;" edge="1" parent="1">
          <mxGeometry relative="1" as="geometry">
            <mxPoint x="-640" y="-460" as="targetPoint" />
            <mxPoint x="-640" y="-620" as="sourcePoint" />
          </mxGeometry>
        </mxCell>
        <mxCell id="G7dJ7ZVqAW4oc8gyLAdU-49" value="" style="rounded=0;whiteSpace=wrap;html=1;fillColor=none;strokeColor=none;rotation=45;" vertex="1" parent="1">
          <mxGeometry x="-50" y="-332" width="10" height="10" as="geometry" />
        </mxCell>
      </root>
    </mxGraphModel>
  </diagram>
</mxfile>
